# xmcd
#
# Track frame offsets:
#	150
#	20842
#	40919
#	60139
#	77012
#	93939
#	111350
#	129608
#	147308
#	154901
#	167001
#	180522
#	192207
#	205204
#	228442
#	238852
#
# Disc length: 3576 seconds
#
# Revision: 0
# Processed by: cddbd v1.5.1PL2 Copyright (c) Steve Scherf et al.
# Submitted via: dBpowerAMP V4.0
#
DISCID=d50df610
DTITLE=Simon Gerber - Dans ton lit
DYEAR=2006
DGENRE=Blues
TTITLE0=Le cirque arrive en ville
TTITLE1=Hollywood star
TTITLE2=Mon orchestre symphonique
TTITLE3=Dans ton lit
TTITLE4=Dans la main
TTITLE5=Jo la chance
TTITLE6=Lucky lucky
TTITLE7=Si j'avais pensé à tout
TTITLE8=Comme une cendre
TTITLE9=La fête
TTITLE10=Les écorcheresses
TTITLE11=Tout doux
TTITLE12=Long gone lonesome blues
TTITLE13=Ol'55
TTITLE14=Goin' down geneva
TTITLE15=Where did you sleep last night
EXTD=
EXTT0=
EXTT1=
EXTT2=
EXTT3=
EXTT4=
EXTT5=
EXTT6=
EXTT7=
EXTT8=
EXTT9=
EXTT10=
EXTT11=
EXTT12=
EXTT13=
EXTT14=
EXTT15=
PLAYORDER=
